<?xml version="1.0" standalone="no"?>
<!DOCTYPE svg PUBLIC "-//W3C//DTD SVG 20010904//EN"
 "http://www.w3.org/TR/2001/REC-SVG-20010904/DTD/svg10.dtd">
<svg version="1.0" xmlns="http://www.w3.org/2000/svg"
 width="960.000000pt" height="960.000000pt" viewBox="0 0 960.000000 960.000000"
 preserveAspectRatio="xMidYMid meet">
<metadata>
Created by potrace 1.14, written by Peter Selinger 2001-2017
</metadata>
<g transform="translate(0.000000,960.000000) scale(0.100000,-0.100000)"
fill="#000000" stroke="none">
<path d="M2880 7264 c-303 -36 -542 -120 -765 -268 -197 -132 -345 -295 -449
-496 -96 -187 -135 -339 -143 -560 -6 -169 10 -308 58 -490 255 -965 1340
-2039 3066 -3034 l153 -88 152 88 c1727 995 2812 2069 3067 3034 48 182 64
321 58 490 -8 221 -47 373 -143 560 -67 130 -134 221 -240 327 -214 212 -505
357 -844 420 -72 13 -147 17 -310 17 -194 0 -227 -3 -340 -27 -167 -35 -290
-77 -438 -147 -188 -91 -299 -166 -481 -330 -94 -83 -502 -410 -513 -410 -17
0 -232 191 -353 314 -209 212 -356 320 -578 426 -252 120 -465 170 -742 175
-99 2 -196 1 -215 -1z"/>
</g>
</svg>
